<mxfile host="app.diagrams.net" agent="Mozilla/5.0 (Windows NT 10.0; Win64; x64; rv:131.0) Gecko/20100101 Firefox/131.0" version="24.7.17">
  <diagram name="Страница — 1" id="RFpwW-EvHah2aBxBeGnW">
    <mxGraphModel dx="1195" dy="605" grid="1" gridSize="10" guides="1" tooltips="1" connect="1" arrows="1" fold="1" page="1" pageScale="1" pageWidth="827" pageHeight="1169" math="0" shadow="0">
      <root>
        <mxCell id="0" />
        <mxCell id="1" parent="0" />
        <mxCell id="fHBep_0TYd8QnGB2VWUB-1" value="Интернет&lt;div&gt;магазин&lt;/div&gt;" style="rounded=0;whiteSpace=wrap;html=1;" parent="1" vertex="1">
          <mxGeometry x="265" y="390" width="120" height="60" as="geometry" />
        </mxCell>
        <mxCell id="fHBep_0TYd8QnGB2VWUB-3" value="Категория" style="rounded=0;whiteSpace=wrap;html=1;" parent="1" vertex="1">
          <mxGeometry x="677" y="390" width="120" height="60" as="geometry" />
        </mxCell>
        <mxCell id="fHBep_0TYd8QnGB2VWUB-4" value="Отзыв" style="rounded=0;whiteSpace=wrap;html=1;" parent="1" vertex="1">
          <mxGeometry x="455" y="526" width="120" height="60" as="geometry" />
        </mxCell>
        <object label="Продукт" id="fHBep_0TYd8QnGB2VWUB-5">
          <mxCell style="swimlane;fontStyle=0;childLayout=stackLayout;horizontal=1;startSize=30;horizontalStack=0;resizeParent=1;resizeParentMax=0;resizeLast=0;collapsible=1;marginBottom=0;whiteSpace=wrap;html=1;glass=0;" parent="1" vertex="1">
            <mxGeometry x="652" y="540" width="170" height="120" as="geometry">
              <mxRectangle x="620" y="430" width="90" height="30" as="alternateBounds" />
            </mxGeometry>
          </mxCell>
        </object>
        <mxCell id="fHBep_0TYd8QnGB2VWUB-6" value="+ цена: Real" style="text;strokeColor=none;fillColor=none;align=left;verticalAlign=middle;spacingLeft=4;spacingRight=4;overflow=hidden;points=[[0,0.5],[1,0.5]];portConstraint=eastwest;rotatable=0;whiteSpace=wrap;html=1;" parent="fHBep_0TYd8QnGB2VWUB-5" vertex="1">
          <mxGeometry y="30" width="170" height="30" as="geometry" />
        </mxCell>
        <mxCell id="fHBep_0TYd8QnGB2VWUB-7" value="+ дата_изготовления: String" style="text;strokeColor=none;fillColor=none;align=left;verticalAlign=middle;spacingLeft=4;spacingRight=4;overflow=hidden;points=[[0,0.5],[1,0.5]];portConstraint=eastwest;rotatable=0;whiteSpace=wrap;html=1;" parent="fHBep_0TYd8QnGB2VWUB-5" vertex="1">
          <mxGeometry y="60" width="170" height="30" as="geometry" />
        </mxCell>
        <mxCell id="fHBep_0TYd8QnGB2VWUB-8" value="+ количество: Integer&amp;nbsp;" style="text;strokeColor=none;fillColor=none;align=left;verticalAlign=middle;spacingLeft=4;spacingRight=4;overflow=hidden;points=[[0,0.5],[1,0.5]];portConstraint=eastwest;rotatable=0;whiteSpace=wrap;html=1;" parent="fHBep_0TYd8QnGB2VWUB-5" vertex="1">
          <mxGeometry y="90" width="170" height="30" as="geometry" />
        </mxCell>
        <mxCell id="fHBep_0TYd8QnGB2VWUB-9" value="Заказ" style="swimlane;fontStyle=0;childLayout=stackLayout;horizontal=1;startSize=30;horizontalStack=0;resizeParent=1;resizeParentMax=0;resizeLast=0;collapsible=1;marginBottom=0;whiteSpace=wrap;html=1;" parent="1" vertex="1">
          <mxGeometry x="5" y="540" width="180" height="146" as="geometry" />
        </mxCell>
        <mxCell id="fHBep_0TYd8QnGB2VWUB-10" value="+ сумма: Real" style="text;strokeColor=none;fillColor=none;align=left;verticalAlign=middle;spacingLeft=4;spacingRight=4;overflow=hidden;points=[[0,0.5],[1,0.5]];portConstraint=eastwest;rotatable=0;whiteSpace=wrap;html=1;" parent="fHBep_0TYd8QnGB2VWUB-9" vertex="1">
          <mxGeometry y="30" width="180" height="30" as="geometry" />
        </mxCell>
        <mxCell id="fHBep_0TYd8QnGB2VWUB-11" value="+ дата_время: String" style="text;strokeColor=none;fillColor=none;align=left;verticalAlign=middle;spacingLeft=4;spacingRight=4;overflow=hidden;points=[[0,0.5],[1,0.5]];portConstraint=eastwest;rotatable=0;whiteSpace=wrap;html=1;" parent="fHBep_0TYd8QnGB2VWUB-9" vertex="1">
          <mxGeometry y="60" width="180" height="30" as="geometry" />
        </mxCell>
        <mxCell id="fHBep_0TYd8QnGB2VWUB-12" value="+ статус_оплаты: String" style="text;strokeColor=none;fillColor=none;align=left;verticalAlign=middle;spacingLeft=4;spacingRight=4;overflow=hidden;points=[[0,0.5],[1,0.5]];portConstraint=eastwest;rotatable=0;whiteSpace=wrap;html=1;" parent="fHBep_0TYd8QnGB2VWUB-9" vertex="1">
          <mxGeometry y="90" width="180" height="30" as="geometry" />
        </mxCell>
        <mxCell id="fHBep_0TYd8QnGB2VWUB-13" value="+ адрес: String" style="text;strokeColor=none;fillColor=none;align=left;verticalAlign=top;spacingLeft=4;spacingRight=4;overflow=hidden;rotatable=0;points=[[0,0.5],[1,0.5]];portConstraint=eastwest;whiteSpace=wrap;html=1;" parent="fHBep_0TYd8QnGB2VWUB-9" vertex="1">
          <mxGeometry y="120" width="180" height="26" as="geometry" />
        </mxCell>
        <mxCell id="fHBep_0TYd8QnGB2VWUB-14" value="Покупатель" style="rounded=0;whiteSpace=wrap;html=1;" parent="1" vertex="1">
          <mxGeometry x="265" y="526" width="120" height="60" as="geometry" />
        </mxCell>
        <mxCell id="fHBep_0TYd8QnGB2VWUB-15" value="" style="endArrow=diamondThin;endFill=1;endSize=24;html=1;rounded=0;entryX=1;entryY=0.5;entryDx=0;entryDy=0;exitX=0;exitY=0.5;exitDx=0;exitDy=0;" parent="1" source="fHBep_0TYd8QnGB2VWUB-3" target="fHBep_0TYd8QnGB2VWUB-1" edge="1">
          <mxGeometry width="160" relative="1" as="geometry">
            <mxPoint x="455" y="420" as="sourcePoint" />
            <mxPoint x="605" y="600" as="targetPoint" />
          </mxGeometry>
        </mxCell>
        <mxCell id="fHBep_0TYd8QnGB2VWUB-18" value="" style="endArrow=diamondThin;endFill=0;endSize=24;html=1;rounded=0;exitX=0.5;exitY=0;exitDx=0;exitDy=0;entryX=0.5;entryY=1;entryDx=0;entryDy=0;" parent="1" source="fHBep_0TYd8QnGB2VWUB-5" target="fHBep_0TYd8QnGB2VWUB-3" edge="1">
          <mxGeometry width="160" relative="1" as="geometry">
            <mxPoint x="405" y="600" as="sourcePoint" />
            <mxPoint x="726" y="440" as="targetPoint" />
            <Array as="points" />
          </mxGeometry>
        </mxCell>
        <mxCell id="fHBep_0TYd8QnGB2VWUB-19" value="" style="endArrow=diamondThin;endFill=1;endSize=24;html=1;rounded=0;exitX=1;exitY=0.5;exitDx=0;exitDy=0;entryX=-0.001;entryY=0.14;entryDx=0;entryDy=0;entryPerimeter=0;" parent="1" source="fHBep_0TYd8QnGB2VWUB-4" target="fHBep_0TYd8QnGB2VWUB-5" edge="1">
          <mxGeometry width="160" relative="1" as="geometry">
            <mxPoint x="485" y="600" as="sourcePoint" />
            <mxPoint x="755" y="550" as="targetPoint" />
          </mxGeometry>
        </mxCell>
        <mxCell id="fHBep_0TYd8QnGB2VWUB-20" value="" style="endArrow=none;endFill=0;endSize=12;html=1;rounded=0;exitX=0;exitY=0.5;exitDx=0;exitDy=0;entryX=1;entryY=0.5;entryDx=0;entryDy=0;" parent="1" source="fHBep_0TYd8QnGB2VWUB-4" target="fHBep_0TYd8QnGB2VWUB-14" edge="1">
          <mxGeometry width="160" relative="1" as="geometry">
            <mxPoint x="525" y="660" as="sourcePoint" />
            <mxPoint x="685" y="660" as="targetPoint" />
          </mxGeometry>
        </mxCell>
        <mxCell id="fHBep_0TYd8QnGB2VWUB-23" value="" style="endArrow=open;endFill=1;endSize=12;html=1;rounded=0;entryX=1;entryY=0.25;entryDx=0;entryDy=0;exitX=0.002;exitY=0.429;exitDx=0;exitDy=0;exitPerimeter=0;" parent="1" source="fHBep_0TYd8QnGB2VWUB-8" target="fHBep_0TYd8QnGB2VWUB-27" edge="1">
          <mxGeometry width="160" relative="1" as="geometry">
            <mxPoint x="635" y="620" as="sourcePoint" />
            <mxPoint x="845" y="380" as="targetPoint" />
          </mxGeometry>
        </mxCell>
        <mxCell id="fHBep_0TYd8QnGB2VWUB-24" value="" style="endArrow=none;endFill=0;endSize=12;html=1;rounded=0;entryX=0.5;entryY=1;entryDx=0;entryDy=0;exitX=0.777;exitY=0.003;exitDx=0;exitDy=0;exitPerimeter=0;" parent="1" source="fHBep_0TYd8QnGB2VWUB-9" target="fHBep_0TYd8QnGB2VWUB-30" edge="1">
          <mxGeometry width="160" relative="1" as="geometry">
            <mxPoint x="145" y="540" as="sourcePoint" />
            <mxPoint x="160" y="470" as="targetPoint" />
          </mxGeometry>
        </mxCell>
        <mxCell id="fHBep_0TYd8QnGB2VWUB-26" value="Работник цеха" style="html=1;whiteSpace=wrap;" parent="1" vertex="1">
          <mxGeometry x="453.13" y="742" width="110" height="50" as="geometry" />
        </mxCell>
        <mxCell id="fHBep_0TYd8QnGB2VWUB-27" value="Цех" style="swimlane;fontStyle=0;childLayout=stackLayout;horizontal=1;startSize=26;fillColor=none;horizontalStack=0;resizeParent=1;resizeParentMax=0;resizeLast=0;collapsible=1;marginBottom=0;whiteSpace=wrap;html=1;" parent="1" vertex="1">
          <mxGeometry x="430" y="630" width="156.25" height="52" as="geometry">
            <mxRectangle x="576.25" y="680" width="60" height="30" as="alternateBounds" />
          </mxGeometry>
        </mxCell>
        <mxCell id="fHBep_0TYd8QnGB2VWUB-28" value="- полезный объём: Real" style="text;strokeColor=none;fillColor=none;align=left;verticalAlign=top;spacingLeft=4;spacingRight=4;overflow=hidden;rotatable=0;points=[[0,0.5],[1,0.5]];portConstraint=eastwest;whiteSpace=wrap;html=1;" parent="fHBep_0TYd8QnGB2VWUB-27" vertex="1">
          <mxGeometry y="26" width="156.25" height="26" as="geometry" />
        </mxCell>
        <mxCell id="fHBep_0TYd8QnGB2VWUB-29" value="Птицевод" style="html=1;whiteSpace=wrap;" parent="1" vertex="1">
          <mxGeometry x="255" y="742" width="110" height="50" as="geometry" />
        </mxCell>
        <mxCell id="fHBep_0TYd8QnGB2VWUB-30" value="Менеджер" style="html=1;whiteSpace=wrap;" parent="1" vertex="1">
          <mxGeometry x="105" y="395" width="80" height="50" as="geometry" />
        </mxCell>
        <mxCell id="fHBep_0TYd8QnGB2VWUB-31" value="Курьер" style="html=1;whiteSpace=wrap;" parent="1" vertex="1">
          <mxGeometry x="5" y="395" width="70" height="50" as="geometry" />
        </mxCell>
        <mxCell id="fHBep_0TYd8QnGB2VWUB-33" value="" style="endArrow=diamondThin;endFill=1;endSize=24;html=1;rounded=0;entryX=0;entryY=0.5;entryDx=0;entryDy=0;exitX=0.998;exitY=0.103;exitDx=0;exitDy=0;exitPerimeter=0;" parent="1" source="fHBep_0TYd8QnGB2VWUB-9" target="fHBep_0TYd8QnGB2VWUB-14" edge="1">
          <mxGeometry width="160" relative="1" as="geometry">
            <mxPoint x="185" y="670" as="sourcePoint" />
            <mxPoint x="385" y="571" as="targetPoint" />
            <Array as="points" />
          </mxGeometry>
        </mxCell>
        <mxCell id="fHBep_0TYd8QnGB2VWUB-34" value="Курятник" style="swimlane;fontStyle=0;childLayout=stackLayout;horizontal=1;startSize=26;fillColor=none;horizontalStack=0;resizeParent=1;resizeParentMax=0;resizeLast=0;collapsible=1;marginBottom=0;whiteSpace=wrap;html=1;" parent="1" vertex="1">
          <mxGeometry x="243.75" y="630" width="140" height="52" as="geometry" />
        </mxCell>
        <mxCell id="fHBep_0TYd8QnGB2VWUB-35" value="+ поголовье: Integer" style="text;strokeColor=none;fillColor=none;align=left;verticalAlign=top;spacingLeft=4;spacingRight=4;overflow=hidden;rotatable=0;points=[[0,0.5],[1,0.5]];portConstraint=eastwest;whiteSpace=wrap;html=1;" parent="fHBep_0TYd8QnGB2VWUB-34" vertex="1">
          <mxGeometry y="26" width="140" height="26" as="geometry" />
        </mxCell>
        <mxCell id="fHBep_0TYd8QnGB2VWUB-36" value="" style="endArrow=open;endFill=1;endSize=12;html=1;rounded=0;exitX=0;exitY=0.25;exitDx=0;exitDy=0;entryX=1;entryY=0.25;entryDx=0;entryDy=0;" parent="1" source="fHBep_0TYd8QnGB2VWUB-27" target="fHBep_0TYd8QnGB2VWUB-34" edge="1">
          <mxGeometry width="160" relative="1" as="geometry">
            <mxPoint x="430" y="700" as="sourcePoint" />
            <mxPoint x="360" y="610" as="targetPoint" />
          </mxGeometry>
        </mxCell>
        <mxCell id="fHBep_0TYd8QnGB2VWUB-38" value="" style="endArrow=none;endFill=0;endSize=12;html=1;rounded=0;entryX=0.5;entryY=1;entryDx=0;entryDy=0;exitX=0.194;exitY=-0.001;exitDx=0;exitDy=0;exitPerimeter=0;" parent="1" source="fHBep_0TYd8QnGB2VWUB-9" target="fHBep_0TYd8QnGB2VWUB-31" edge="1">
          <mxGeometry width="160" relative="1" as="geometry">
            <mxPoint x="40" y="530" as="sourcePoint" />
            <mxPoint x="40" y="480" as="targetPoint" />
          </mxGeometry>
        </mxCell>
        <mxCell id="fHBep_0TYd8QnGB2VWUB-42" value="" style="endArrow=diamondThin;endFill=0;endSize=24;html=1;rounded=0;exitX=0.5;exitY=0;exitDx=0;exitDy=0;entryX=0.5;entryY=0;entryDx=0;entryDy=0;" parent="1" source="fHBep_0TYd8QnGB2VWUB-31" target="fHBep_0TYd8QnGB2VWUB-1" edge="1">
          <mxGeometry width="160" relative="1" as="geometry">
            <mxPoint x="39.5" y="380" as="sourcePoint" />
            <mxPoint x="39.5" y="290" as="targetPoint" />
            <Array as="points">
              <mxPoint x="40" y="320" />
              <mxPoint x="190" y="320" />
              <mxPoint x="325" y="320" />
            </Array>
          </mxGeometry>
        </mxCell>
        <mxCell id="fHBep_0TYd8QnGB2VWUB-43" value="" style="endArrow=diamondThin;endFill=0;endSize=24;html=1;rounded=0;exitX=1;exitY=0.5;exitDx=0;exitDy=0;entryX=0;entryY=0.5;entryDx=0;entryDy=0;" parent="1" source="fHBep_0TYd8QnGB2VWUB-30" target="fHBep_0TYd8QnGB2VWUB-1" edge="1">
          <mxGeometry width="160" relative="1" as="geometry">
            <mxPoint x="220" y="440" as="sourcePoint" />
            <mxPoint x="220" y="350" as="targetPoint" />
            <Array as="points" />
          </mxGeometry>
        </mxCell>
        <mxCell id="fHBep_0TYd8QnGB2VWUB-44" value="" style="endArrow=diamondThin;endFill=0;endSize=24;html=1;rounded=0;exitX=0.5;exitY=0;exitDx=0;exitDy=0;entryX=0.475;entryY=1.015;entryDx=0;entryDy=0;entryPerimeter=0;" parent="1" source="fHBep_0TYd8QnGB2VWUB-29" target="fHBep_0TYd8QnGB2VWUB-35" edge="1">
          <mxGeometry width="160" relative="1" as="geometry">
            <mxPoint x="385" y="850" as="sourcePoint" />
            <mxPoint x="390" y="710" as="targetPoint" />
            <Array as="points" />
          </mxGeometry>
        </mxCell>
        <mxCell id="fHBep_0TYd8QnGB2VWUB-45" value="" style="endArrow=diamondThin;endFill=0;endSize=24;html=1;rounded=0;exitX=0.5;exitY=0;exitDx=0;exitDy=0;entryX=0.502;entryY=1.004;entryDx=0;entryDy=0;entryPerimeter=0;" parent="1" source="fHBep_0TYd8QnGB2VWUB-26" target="fHBep_0TYd8QnGB2VWUB-28" edge="1">
          <mxGeometry width="160" relative="1" as="geometry">
            <mxPoint x="440" y="746" as="sourcePoint" />
            <mxPoint x="490" y="700" as="targetPoint" />
            <Array as="points" />
          </mxGeometry>
        </mxCell>
        <mxCell id="fHBep_0TYd8QnGB2VWUB-46" value="" style="endArrow=diamondThin;endFill=0;endSize=24;html=1;rounded=0;exitX=0.5;exitY=0;exitDx=0;exitDy=0;entryX=0.5;entryY=1;entryDx=0;entryDy=0;" parent="1" source="fHBep_0TYd8QnGB2VWUB-14" target="fHBep_0TYd8QnGB2VWUB-1" edge="1">
          <mxGeometry width="160" relative="1" as="geometry">
            <mxPoint x="313.61" y="520" as="sourcePoint" />
            <mxPoint x="313.61" y="460" as="targetPoint" />
            <Array as="points" />
          </mxGeometry>
        </mxCell>
        <mxCell id="Vkq-tpurqeeccvXeL3kH-1" value="&lt;font style=&quot;font-size: 24px;&quot;&gt;*&lt;/font&gt;" style="text;html=1;align=center;verticalAlign=middle;resizable=0;points=[];autosize=1;strokeColor=none;fillColor=none;" vertex="1" parent="1">
          <mxGeometry x="627" y="620" width="30" height="40" as="geometry" />
        </mxCell>
        <mxCell id="Vkq-tpurqeeccvXeL3kH-2" value="&lt;font style=&quot;font-size: 24px;&quot;&gt;*&lt;/font&gt;" style="text;html=1;align=center;verticalAlign=middle;resizable=0;points=[];autosize=1;strokeColor=none;fillColor=none;" vertex="1" parent="1">
          <mxGeometry x="408" y="620" width="30" height="40" as="geometry" />
        </mxCell>
      </root>
    </mxGraphModel>
  </diagram>
</mxfile>
